<?xml version="1.0" standalone="no"?>
<!DOCTYPE svg PUBLIC "-//W3C//DTD SVG 20010904//EN"
 "http://www.w3.org/TR/2001/REC-SVG-20010904/DTD/svg10.dtd">
<svg version="1.0" xmlns="http://www.w3.org/2000/svg"
 width="1024.000000pt" height="1024.000000pt" viewBox="0 0 1024.000000 1024.000000"
 preserveAspectRatio="xMidYMid meet">
<metadata>
Created by potrace 1.11, written by Peter Selinger 2001-2013
</metadata>
<g transform="translate(0.000000,1024.000000) scale(0.100000,-0.100000)"
fill="#000000" stroke="none">
<path d="M858 10225 c-375 -63 -675 -320 -804 -687 -57 -162 -54 114 -54
-4423 0 -3649 2 -4181 15 -4255 39 -224 138 -411 297 -566 141 -137 313 -231
501 -271 78 -17 297 -18 4307 -18 4010 0 4229 1 4307 18 194 42 379 144 519
289 153 157 244 337 279 553 22 136 22 8374 0 8510 -37 227 -141 423 -311 586
-146 140 -330 230 -539 264 -78 13 -643 15 -4265 14 -3363 -1 -4190 -4 -4252
-14z m4742 -3195 l0 -540 -277 2 -278 3 -25 278 -24 277 -538 0 -538 0 0
-1903 0 -1904 183 -32 c100 -17 221 -39 270 -47 l87 -16 0 -209 0 -209 -865 0
-865 0 0 210 c0 116 3 210 6 210 3 0 121 20 262 45 141 25 259 45 264 45 4 0
8 857 8 1905 l0 1905 -540 0 -540 0 0 -22 c0 -39 -41 -512 -45 -525 -3 -10
-68 -13 -280 -13 l-275 0 0 540 0 540 2005 0 2005 0 0 -540z m3060 325 c0
-118 -3 -215 -7 -215 -5 0 -125 -20 -268 -45 -143 -25 -261 -45 -262 -45 -2 0
-3 -692 -3 -1537 0 -947 -4 -1573 -10 -1628 -38 -344 -150 -586 -375 -811
-318 -319 -732 -449 -1280 -404 -432 36 -736 164 -992 419 -197 197 -312 502
-316 841 l-2 125 318 3 317 2 0 -67 c0 -99 25 -239 61 -337 100 -278 325 -438
669 -477 390 -45 702 114 860 437 51 103 77 204 89 351 7 75 11 666 11 1600
l0 1481 -27 6 c-16 3 -135 24 -267 46 -131 22 -242 43 -247 46 -10 6 -12 407
-2 417 3 4 395 7 870 7 l863 0 0 -215z"/>
</g>
</svg>
